<svg width="200" height="200" viewBox="0 0 200 200" fill="none" xmlns="http://www.w3.org/2000/svg">
  <!-- Background -->
  <rect width="200" height="200" rx="40" fill="#0D47A1"/>
  <defs>
    <linearGradient id="bg" x1="0" y1="0" x2="200" y2="200" gradientUnits="userSpaceOnUse">
      <stop stop-color="#1565C0"/>
      <stop offset="1" stop-color="#0D47A1"/>
    </linearGradient>
  </defs>
  <rect width="200" height="200" rx="40" fill="url(#bg)"/>

  <!-- M / Eye Shape -->
  <path d="M60 70C60 60 70 50 85 50H115C130 50 140 60 140 70V100H130V70C130 65 125 60 115 60H85C75 60 70 65 70 70V100H60V70Z" fill="white"/>
  <circle cx="100" cy="90" r="15" stroke="white" stroke-width="8"/>
  <circle cx="100" cy="90" r="5" fill="white"/>
  
  <!-- Text -->
  <text x="100" y="140" font-family="Arial, sans-serif" font-weight="bold" font-size="28" fill="white" text-anchor="middle" letter-spacing="2">BICT</text>
  <text x="100" y="160" font-family="Arial, sans-serif" font-size="8" fill="white" text-anchor="middle" letter-spacing="1" opacity="0.8">LEARN - CREATE - GROW</text>

  <!-- Circular Ring Segment -->
  <path d="M30 100A70 70 0 1 1 150 150" stroke="white" stroke-width="2" stroke-linecap="round" fill="none" opacity="0.5"/>
  
  <!-- Pen Nib Icon -->
  <path d="M150 150L160 140L170 150L160 170L150 150ZM160 155V170" stroke="white" stroke-width="2" fill="none"/>
</svg>
